<svg width="26" height="26" viewBox="0 0 26 26" fill="none" xmlns="http://www.w3.org/2000/svg">
<g clip-path="url(#clip0_460_111)">
<path d="M25.5999 12.6002C25.5999 5.64145 19.9587 0.000244141 12.9999 0.000244141C6.04114 0.000244141 0.399933 5.64145 0.399933 12.6002C0.399933 18.8892 5.00755 24.1019 11.0312 25.0472V16.2424H7.83196V12.6002H11.0312V9.82431C11.0312 6.66643 12.9123 4.92212 15.7904 4.92212C17.1685 4.92212 18.6109 5.16821 18.6109 5.16821V8.26899H17.0221C15.4569 8.26899 14.9687 9.24033 14.9687 10.2377V12.6002H18.4632L17.9046 16.2424H14.9687V25.0472C20.9923 24.1019 25.5999 18.8892 25.5999 12.6002Z" fill="#98A2B3"/>
</g>
<defs>
<clipPath id="clip0_460_111">
<rect width="25.2" height="25.2" fill="white" transform="translate(0.399994)"/>
</clipPath>
</defs>
</svg>
