<svg width="26" height="26" viewBox="0 0 26 26" fill="none" xmlns="http://www.w3.org/2000/svg">
<g clip-path="url(#clip0_460_108)">
<path d="M23.3347 0.000244141H1.86059C0.831919 0.000244141 0.00012207 0.812354 0.00012207 1.81642V23.3792C0.00012207 24.3832 0.831919 25.2002 1.86059 25.2002H23.3347C24.3634 25.2002 25.2001 24.3832 25.2001 23.3841V1.81642C25.2001 0.812354 24.3634 0.000244141 23.3347 0.000244141ZM7.47645 21.4744H3.73583V9.44532H7.47645V21.4744ZM5.60614 7.80634C4.4052 7.80634 3.43559 6.83673 3.43559 5.64071C3.43559 4.4447 4.4052 3.47509 5.60614 3.47509C6.80215 3.47509 7.77176 4.4447 7.77176 5.64071C7.77176 6.83181 6.80215 7.80634 5.60614 7.80634ZM21.4743 21.4744H17.7386V15.6272C17.7386 14.2343 17.714 12.4378 15.7944 12.4378C13.8503 12.4378 13.555 13.9587 13.555 15.5288V21.4744H9.82419V9.44532H13.4073V11.0892H13.4565C13.9536 10.1442 15.1743 9.14509 16.9904 9.14509C20.7754 9.14509 21.4743 11.6356 21.4743 14.8742V21.4744Z" fill="#98A2B3"/>
</g>
<defs>
<clipPath id="clip0_460_108">
<rect width="25.2" height="25.2" fill="white"/>
</clipPath>
</defs>
</svg>
